# This file uses centimeters as units for non-parametric coordinates.

mtllib arm2.mtl
g default1
v -0.522867 -2.995601 -1.113337
v -0.534809 -2.999327 -2.249516
v 0.508304 -2.993695 -2.260498
v 0.520246 -2.989969 -1.124319
v -0.539136 -0.000953 -1.122988
v -0.551078 -0.004679 -2.259166
v 0.492033 0.000952 -2.270148
v 0.503975 0.004678 -1.133969
vt 0.751531 0.495565
vt 0.750936 0.380423
vt 0.809750 0.380419
vt 0.810345 0.495561
vt 0.742435 0.491594
vt 0.692625 0.494289
vt 0.694261 0.384836
vt 0.743450 0.383461
vt 0.812515 -0.000097
vt 0.815253 0.371091
vt 0.868920 0.364678
vt 0.874571 0.001789
vt 0.624939 0.002045
vt 0.624939 0.367059
vt 0.685430 0.372925
vt 0.685430 0.007911
vt 0.683545 0.007405
vt 0.682306 0.368702
vt 0.745871 0.372399
vt 0.747110 0.011103
vt 0.752229 0.369072
vt 0.753982 0.001679
vt 0.813759 0.007713
vt 0.812005 0.375106
vn 0.005433 -0.999980 0.003222
vn 0.005433 -0.999980 0.003222
vn 0.005433 -0.999980 0.003222
vn 0.005433 -0.999980 0.003222
vn -0.005433 0.999980 -0.003222
vn -0.005433 0.999980 -0.003222
vn -0.005433 0.999980 -0.003222
vn -0.005433 0.999980 -0.003222
vn -0.999930 -0.005398 0.010527
vn -0.999930 -0.005398 0.010527
vn -0.999930 -0.005398 0.010527
vn -0.999930 -0.005398 0.010527
vn -0.010510 -0.003279 -0.999939
vn -0.010510 -0.003279 -0.999939
vn -0.010510 -0.003279 -0.999939
vn -0.010510 -0.003279 -0.999939
vn 0.999930 0.005399 -0.010527
vn 0.999930 0.005399 -0.010527
vn 0.999930 0.005399 -0.010527
vn 0.999930 0.005399 -0.010527
vn 0.010509 0.003279 0.999940
vn 0.010509 0.003279 0.999939
vn 0.010509 0.003279 0.999940
vn 0.010509 0.003279 0.999939
s off
g Mesh initialShadingGroup polySurface2 polySurface8 polySurface1
f 1/1/1 2/2/2 3/3/3 4/4/4
f 5/5/5 8/6/6 7/7/7 6/8/8
f 1/9/9 5/10/10 6/11/11 2/12/12
f 2/13/13 6/14/14 7/15/15 3/16/16
f 3/17/17 7/18/18 8/19/19 4/20/20
f 5/21/21 1/22/22 4/23/23 8/24/24
