# This file uses centimeters as units for non-parametric coordinates.

mtllib base.mtl
g default
v -4.000000 0.229259 0.000401
v 4.000000 0.229259 0.000401
v -4.000000 0.379259 0.000401
v 4.000000 0.379259 0.000401
v -7.998925 0.379259 -4.978509
v 7.997635 0.379259 -4.978509
v -7.998925 0.229259 -4.978509
v 7.997635 0.229259 -4.978509
vt 0.065731 0.816647
vt 0.065731 0.500426
vt 0.262535 0.342409
vt 0.262535 0.974714
vt 0.266751 0.974714
vt 0.266751 0.342409
vt 0.463556 0.500426
vt 0.463556 0.816647
vt 0.055073 0.816647
vt 0.055073 0.500426
vt 0.061002 0.500426
vt 0.061002 0.816647
vt 0.055073 0.342409
vt 0.061002 0.342409
vt 0.055073 0.974714
vt 0.061002 0.974714
vt 0.043908 0.974714
vt 0.043908 0.342409
vt 0.049837 0.342409
vt 0.049837 0.974714
vn 0.000000 0.000000 1.000000
vn 0.000000 0.000000 1.000000
vn 0.000000 0.000000 1.000000
vn 0.000000 0.000000 1.000000
vn 0.000000 1.000000 0.000000
vn 0.000000 1.000000 0.000000
vn 0.000000 1.000000 0.000000
vn 0.000000 1.000000 0.000000
vn 0.000000 0.000000 -1.000000
vn 0.000000 0.000000 -1.000000
vn 0.000000 0.000000 -1.000000
vn 0.000000 0.000000 -1.000000
vn 0.000000 -1.000000 0.000000
vn 0.000000 -1.000000 0.000000
vn 0.000000 -1.000000 0.000000
vn 0.000000 -1.000000 0.000000
vn 0.779759 0.000000 0.626079
vn 0.779759 0.000000 0.626079
vn 0.779759 0.000000 0.626079
vn 0.779759 0.000000 0.626079
vn -0.779661 0.000000 0.626202
vn -0.779661 0.000000 0.626202
vn -0.779661 0.000000 0.626202
vn -0.779661 0.000000 0.626202
s off
g Base_Floor
usemtl lambert2SG
f 1/9/1 2/10/2 4/11/3 3/12/4
f 3/1/5 4/2/6 6/3/7 5/4/8
f 5/17/9 6/18/10 8/19/11 7/20/12
f 7/5/13 8/6/14 2/7/15 1/8/16
f 2/10/17 8/13/18 6/14/19 4/11/20
f 7/15/21 1/9/22 3/12/23 5/16/24
g default
v -7.807795 0.379253 -4.883511
v 7.806835 0.379253 -4.883511
v -7.807795 2.879253 -4.883511
v 7.806835 2.879253 -4.883511
v -7.882466 2.879253 -4.978511
v 7.883701 2.879253 -4.978511
v -7.880911 0.379253 -4.978511
v 7.883701 0.379253 -4.978511
vt 0.424031 0.019053
vt 0.530183 0.019053
vt 0.530183 0.125205
vt 0.424031 0.125205
vt 0.530183 0.231357
vt 0.424031 0.231357
vt 0.530183 0.337508
vt 0.424031 0.337508
vt 0.530183 0.443660
vt 0.424031 0.443660
vt 0.636335 0.019053
vt 0.636335 0.125205
vt 0.317880 0.019053
vt 0.317880 0.125205
vn 0.000000 0.000000 1.000000
vn 0.000000 0.000000 1.000000
vn 0.000000 0.000000 1.000000
vn 0.000000 0.000000 1.000000
vn 0.000000 1.000000 0.000001
vn 0.000000 1.000000 0.000001
vn 0.000000 1.000000 0.000001
vn 0.000000 1.000000 0.000001
vn 0.000000 0.000000 -1.000000
vn 0.000000 0.000000 -1.000000
vn 0.000000 0.000000 -1.000000
vn 0.000000 0.000000 -1.000000
vn 0.000000 -1.000000 -0.000001
vn 0.000000 -1.000000 -0.000001
vn 0.000000 -1.000000 -0.000001
vn 0.000000 -1.000000 -0.000001
vn 0.777399 0.000000 0.629008
vn 0.777399 0.000000 0.629008
vn 0.777399 0.000000 0.629008
vn 0.777399 0.000000 0.629008
vn -0.789333 -0.000246 0.613965
vn -0.789333 -0.000246 0.613965
vn -0.789333 -0.000246 0.613965
vn -0.789333 -0.000246 0.613965
s off
g Base_Back
usemtl lambert2SG
f 9/21/25 10/22/26 12/23/27 11/24/28
f 11/24/29 12/23/30 14/25/31 13/26/32
f 13/26/33 14/25/34 16/27/35 15/28/36
f 15/28/37 16/27/38 10/29/39 9/30/40
f 10/22/41 16/31/42 14/32/43 12/23/44
f 15/33/45 9/21/46 11/24/47 13/34/48
g default
v -4.000000 2.879239 0.000401
v 4.000000 2.879239 0.000401
v -4.000000 3.029239 0.000401
v 4.000000 3.029239 0.000401
v -7.998925 3.029239 -4.978509
v 7.997635 3.029239 -4.978509
v -7.998925 2.879239 -4.978509
v 7.997635 2.879239 -4.978509
vt 0.576636 0.816647
vt 0.576636 0.500426
vt 0.773440 0.342409
vt 0.773440 0.974714
vt 0.777656 0.974714
vt 0.777656 0.342409
vt 0.974460 0.500426
vt 0.974460 0.816647
vt 0.565977 0.816647
vt 0.565977 0.500426
vt 0.571906 0.500426
vt 0.571906 0.816647
vt 0.565977 0.342409
vt 0.571906 0.342409
vt 0.565977 0.974714
vt 0.571906 0.974714
vt 0.554813 0.974714
vt 0.554813 0.342409
vt 0.560742 0.342409
vt 0.560742 0.974714
vn 0.000000 0.000000 1.000000
vn 0.000000 0.000000 1.000000
vn 0.000000 0.000000 1.000000
vn 0.000000 0.000000 1.000000
vn 0.000000 1.000000 0.000000
vn 0.000000 1.000000 0.000000
vn 0.000000 1.000000 0.000000
vn 0.000000 1.000000 0.000000
vn 0.000000 0.000000 -1.000000
vn 0.000000 0.000000 -1.000000
vn 0.000000 0.000000 -1.000000
vn 0.000000 0.000000 -1.000000
vn 0.000000 -1.000000 0.000000
vn 0.000000 -1.000000 0.000000
vn 0.000000 -1.000000 0.000000
vn 0.000000 -1.000000 0.000000
vn 0.779759 0.000000 0.626079
vn 0.779759 0.000000 0.626079
vn 0.779759 0.000000 0.626079
vn 0.779759 0.000000 0.626079
vn -0.779661 0.000000 0.626202
vn -0.779661 0.000000 0.626202
vn -0.779661 0.000000 0.626202
vn -0.779661 0.000000 0.626202
s off
g Base_Ceiling
usemtl lambert2SG
f 17/43/49 18/44/50 20/45/51 19/46/52
f 19/35/53 20/36/54 22/37/55 21/38/56
f 21/51/57 22/52/58 24/53/59 23/54/60
f 23/39/61 24/40/62 18/41/63 17/42/64
f 18/44/65 24/47/66 22/48/67 20/45/68
f 23/49/69 17/43/70 19/46/71 21/50/72
