# This file uses centimeters as units for non-parametric coordinates.

mtllib Body.mtl
g default1
v -0.522867 -2.995601 -1.113337
v -0.534809 -2.999327 -2.249516
v 0.508304 -2.993695 -2.260498
v 0.520246 -2.989969 -1.124319
v -0.539136 -0.000953 -1.122988
v -0.551078 -0.004679 -2.259166
v 0.492033 0.000952 -2.270148
v 0.503975 0.004678 -1.133969
vt 0.751531 0.495565
vt 0.750936 0.380423
vt 0.809750 0.380419
vt 0.810345 0.495561
vt 0.742435 0.491594
vt 0.692625 0.494289
vt 0.694261 0.384836
vt 0.743450 0.383461
vt 0.812515 -0.000097
vt 0.815253 0.371091
vt 0.868920 0.364678
vt 0.874571 0.001789
vt 0.624939 0.002045
vt 0.624939 0.367059
vt 0.685430 0.372925
vt 0.685430 0.007911
vt 0.683545 0.007405
vt 0.682306 0.368702
vt 0.745871 0.372399
vt 0.747110 0.011103
vt 0.752229 0.369072
vt 0.753982 0.001679
vt 0.813759 0.007713
vt 0.812005 0.375106
vn 0.005433 -0.999980 0.003222
vn 0.005433 -0.999980 0.003222
vn 0.005433 -0.999980 0.003222
vn 0.005433 -0.999980 0.003222
vn -0.005433 0.999980 -0.003222
vn -0.005433 0.999980 -0.003222
vn -0.005433 0.999980 -0.003222
vn -0.005433 0.999980 -0.003222
vn -0.999930 -0.005398 0.010527
vn -0.999930 -0.005398 0.010527
vn -0.999930 -0.005398 0.010527
vn -0.999930 -0.005398 0.010527
vn -0.010510 -0.003279 -0.999939
vn -0.010510 -0.003279 -0.999939
vn -0.010510 -0.003279 -0.999939
vn -0.010510 -0.003279 -0.999939
vn 0.999930 0.005399 -0.010527
vn 0.999930 0.005399 -0.010527
vn 0.999930 0.005399 -0.010527
vn 0.999930 0.005399 -0.010527
vn 0.010509 0.003279 0.999940
vn 0.010509 0.003279 0.999939
vn 0.010509 0.003279 0.999940
vn 0.010509 0.003279 0.999939
s off
g Mesh initialShadingGroup polySurface2 polySurface8 polySurface1
f 1/1/1 2/2/2 3/3/3 4/4/4
f 5/5/5 8/6/6 7/7/7 6/8/8
f 1/9/9 5/10/10 6/11/11 2/12/12
f 2/13/13 6/14/14 7/15/15 3/16/16
f 3/17/17 7/18/18 8/19/19 4/20/20
f 5/21/21 1/22/22 4/23/23 8/24/24
g default1
v -0.521593 3.000000 -1.138887
v -0.521593 3.000000 -0.002640
v 0.521593 3.000000 -0.002640
v 0.521592 3.000000 -1.138888
v -0.521593 0.005292 -1.138887
v -0.521592 0.005292 -0.002639
v 0.521593 0.005292 -0.002640
v 0.521593 0.005292 -1.138887
vt 0.122711 0.377515
vt 0.122790 0.486939
vt 0.062175 0.489947
vt 0.062097 0.380523
vt 0.185797 0.496086
vt 0.129150 0.496087
vt 0.130335 0.384604
vt 0.186982 0.384604
vt 0.248134 0.369546
vt 0.248134 0.005873
vt 0.190032 0.003247
vt 0.190032 0.366920
vt 0.124765 0.368140
vt 0.132199 -0.002275
vt 0.194403 -0.002528
vt 0.186969 0.367886
vt 0.124544 0.365241
vt 0.124544 0.003935
vt 0.065990 0.003935
vt 0.065990 0.365241
vt 0.063592 0.000071
vt 0.063591 0.370784
vt 0.001967 0.370784
vt 0.001967 0.000071
vn 0.000000 1.000000 0.000000
vn 0.000000 1.000000 0.000000
vn 0.000000 1.000000 0.000000
vn 0.000000 1.000000 0.000000
vn 0.000000 -1.000000 0.000000
vn 0.000000 -1.000000 0.000000
vn 0.000000 -1.000000 0.000000
vn 0.000000 -1.000000 0.000000
vn -1.000000 0.000000 0.000000
vn -1.000000 0.000000 0.000000
vn -1.000000 0.000000 0.000000
vn -1.000000 0.000000 0.000000
vn 0.000000 0.000000 1.000000
vn 0.000000 0.000000 1.000000
vn 0.000000 0.000000 1.000000
vn 0.000000 0.000000 1.000000
vn 1.000000 0.000000 0.000000
vn 1.000000 0.000000 0.000000
vn 1.000000 0.000000 0.000000
vn 1.000000 0.000000 0.000000
vn 0.000000 0.000000 -1.000000
vn 0.000000 0.000000 -1.000000
vn 0.000000 0.000000 -1.000000
vn 0.000000 0.000000 -1.000000
s off
g Mesh initialShadingGroup polySurface3 polySurface1 polySurface9
f 9/25/25 10/26/26 11/27/27 12/28/28
f 13/29/29 16/30/30 15/31/31 14/32/32
f 9/33/33 13/34/34 14/35/35 10/36/36
f 10/37/37 14/38/38 15/39/39 11/40/40
f 11/41/41 15/42/42 16/43/43 12/44/44
f 13/45/45 9/46/46 12/47/47 16/48/48
g default1
v -0.521593 3.000000 0.000451
v -0.521593 3.000000 1.136699
v 0.521593 3.000000 1.136699
v 0.521592 3.000000 0.000451
v -0.521593 0.005292 0.000451
v -0.521592 0.005292 1.136699
v 0.521593 0.005292 1.136698
v 0.521593 0.005292 0.000451
vt 0.124564 0.372844
vt 0.123284 0.495731
vt 0.062259 0.497328
vt 0.063538 0.374441
vt 0.127235 0.399047
vt 0.176002 0.400278
vt 0.180914 0.488889
vt 0.132147 0.487657
vt 0.190389 0.376124
vt 0.190389 0.007004
vt 0.250461 0.004319
vt 0.250461 0.373439
vt 0.003490 0.373364
vt 0.003490 0.010074
vt 0.065597 0.010074
vt 0.065597 0.373364
vt 0.065586 0.375905
vt 0.065375 0.003473
vt 0.124947 0.003338
vt 0.125158 0.375770
vt 0.129246 0.009620
vt 0.129246 0.377727
vt 0.187953 0.377727
vt 0.187953 0.009620
vn 0.000000 1.000000 0.000000
vn 0.000000 1.000000 0.000000
vn 0.000000 1.000000 0.000000
vn 0.000000 1.000000 0.000000
vn 0.000000 -1.000000 0.000000
vn 0.000000 -1.000000 0.000000
vn 0.000000 -1.000000 0.000000
vn 0.000000 -1.000000 0.000000
vn -1.000000 0.000000 0.000000
vn -1.000000 0.000000 0.000000
vn -1.000000 0.000000 0.000000
vn -1.000000 0.000000 0.000000
vn 0.000000 -0.000000 1.000000
vn 0.000000 -0.000000 1.000000
vn 0.000000 -0.000000 1.000000
vn 0.000000 -0.000000 1.000000
vn 1.000000 0.000000 0.000000
vn 1.000000 0.000000 0.000000
vn 1.000000 0.000000 0.000000
vn 1.000000 0.000000 0.000000
vn 0.000000 0.000000 -1.000000
vn 0.000000 0.000000 -1.000000
vn 0.000000 0.000000 -1.000000
vn 0.000000 0.000000 -1.000000
s off
g Mesh initialShadingGroup polySurface4 polySurface1 polySurface10
f 17/49/49 18/50/50 19/51/51 20/52/52
f 21/53/53 24/54/54 23/55/55 22/56/56
f 17/57/57 21/58/58 22/59/59 18/60/60
f 18/61/61 22/62/62 23/63/63 19/64/64
f 19/65/65 23/66/66 24/67/67 20/68/68
f 21/69/69 17/70/70 20/71/71 24/72/72
g default1
v -0.522867 -2.995602 2.332306
v -0.534809 -2.999328 1.196127
v 0.508304 -2.993696 1.185145
v 0.520246 -2.989969 2.321324
v -0.539136 -0.000953 2.322655
v -0.551078 -0.004679 1.186477
v 0.492033 0.000953 1.175495
v 0.503975 0.004679 2.311674
vt 0.804303 0.385914
vt 0.804825 0.499729
vt 0.753230 0.499733
vt 0.752708 0.385918
vt 0.689974 0.370287
vt 0.746808 0.370287
vt 0.746234 0.492852
vt 0.689399 0.492852
vt 0.868612 0.001975
vt 0.869768 0.364560
vt 0.814460 0.364662
vt 0.813304 0.002077
vt 0.811877 0.009677
vt 0.813595 0.366483
vt 0.750218 0.372484
vt 0.748500 0.015679
vt 0.750799 0.006957
vt 0.751400 0.363210
vt 0.684258 0.364713
vt 0.683656 0.008460
vt 0.626502 0.372208
vt 0.631271 0.006768
vt 0.689389 0.007035
vt 0.684620 0.372475
vn 0.005434 -0.999980 0.003223
vn 0.005434 -0.999980 0.003223
vn 0.005434 -0.999980 0.003223
vn 0.005434 -0.999980 0.003223
vn -0.005433 0.999980 -0.003222
vn -0.005433 0.999980 -0.003222
vn -0.005433 0.999980 -0.003222
vn -0.005433 0.999980 -0.003222
vn -0.999930 -0.005398 0.010527
vn -0.999930 -0.005398 0.010527
vn -0.999930 -0.005398 0.010527
vn -0.999930 -0.005398 0.010527
vn -0.010510 -0.003279 -0.999939
vn -0.010510 -0.003279 -0.999939
vn -0.010510 -0.003279 -0.999939
vn -0.010510 -0.003279 -0.999939
vn 0.999930 0.005399 -0.010527
vn 0.999930 0.005399 -0.010527
vn 0.999930 0.005399 -0.010527
vn 0.999930 0.005399 -0.010527
vn 0.010509 0.003279 0.999940
vn 0.010509 0.003279 0.999939
vn 0.010509 0.003279 0.999939
vn 0.010509 0.003279 0.999940
s off
g Mesh initialShadingGroup polySurface5 polySurface1 polySurface11
f 25/73/73 26/74/74 27/75/75 28/76/76
f 29/77/77 32/78/78 31/79/79 30/80/80
f 25/81/81 29/82/82 30/83/83 26/84/84
f 26/85/85 30/86/86 31/87/87 27/88/88
f 27/89/89 31/90/90 32/91/91 28/92/92
f 29/93/93 25/94/94 28/95/95 32/96/96
g default1
v -0.521593 0.000000 -1.131610
v -0.521593 0.000000 1.163829
v 0.521593 0.000000 1.163828
v 0.521592 0.000000 -1.131611
v -0.521593 -2.994709 -1.131610
v -0.521592 -2.994709 1.163829
v 0.521593 -2.994709 1.163828
v 0.521593 -2.994709 -1.131610
vt 0.439419 0.501069
vt 0.313044 0.494516
vt 0.314588 0.373515
vt 0.440962 0.380069
vt 0.183671 0.494358
vt 0.127578 0.496613
vt 0.129334 0.382434
vt 0.185427 0.380179
vt 0.622224 0.375264
vt 0.625501 0.005748
vt 0.508958 0.000506
vt 0.505681 0.370022
vt 0.309159 0.373364
vt 0.309159 -0.002509
vt 0.249632 -0.002509
vt 0.249632 0.373364
vt 0.312738 0.372217
vt 0.312738 0.000239
vt 0.438887 0.000239
vt 0.438887 0.372217
vt 0.500000 -0.005172
vt 0.500000 0.370784
vt 0.441207 0.370784
vt 0.441206 -0.005172
vn 0.000000 1.000000 0.000000
vn 0.000000 1.000000 0.000000
vn 0.000000 1.000000 0.000000
vn 0.000000 1.000000 0.000000
vn 0.000000 -1.000000 0.000000
vn 0.000000 -1.000000 0.000000
vn 0.000000 -1.000000 0.000000
vn 0.000000 -1.000000 0.000000
vn -1.000000 0.000000 0.000000
vn -1.000000 0.000000 0.000000
vn -1.000000 0.000000 0.000000
vn -1.000000 0.000000 0.000000
vn 0.000001 0.000000 1.000000
vn 0.000001 0.000000 1.000000
vn 0.000001 0.000000 1.000000
vn 0.000001 0.000000 1.000000
vn 1.000000 0.000000 0.000000
vn 1.000000 0.000000 0.000000
vn 1.000000 0.000000 0.000000
vn 1.000000 0.000000 0.000000
vn 0.000000 0.000000 -1.000000
vn 0.000000 0.000000 -1.000000
vn 0.000000 0.000000 -1.000000
vn 0.000000 0.000000 -1.000000
s off
g Mesh initialShadingGroup polySurface6 polySurface1 polySurface12
f 33/97/97 34/98/98 35/99/99 36/100/100
f 37/101/101 40/102/102 39/103/103 38/104/104
f 33/105/105 37/106/106 38/107/107 34/108/108
f 34/109/109 38/110/110 39/111/111 35/112/112
f 35/113/113 39/114/114 40/115/115 36/116/116
f 37/117/117 33/118/118 36/119/119 40/120/120
g default1
v 1.000000 -0.006595 0.993383
v 1.000000 1.993361 1.006573
v -1.000000 1.993361 1.006573
v -1.000000 -0.006596 0.993383
v 1.000000 0.006595 -1.006573
v 0.999999 2.006552 -0.993383
v -1.000000 2.006551 -0.993383
v -1.000000 0.006595 -1.006573
v 1.000000 -0.006595 0.993383
v 1.000000 1.993361 1.006573
v -1.000000 1.993361 1.006573
v -1.000000 -0.006596 0.993383
vt 0.376673 0.749269
vt 0.375900 0.503487
vt 0.375900 0.503487
vt 0.376673 0.749269
vt 0.249306 0.504219
vt 0.374877 0.506418
vt 0.374931 0.749621
vt 0.250104 0.747256
vt 0.125687 0.503316
vt 0.250780 0.503290
vt 0.251113 0.748845
vt 0.126238 0.747512
vt 0.125457 0.755906
vt 0.249146 0.755974
vt 0.249112 0.999932
vt 0.125829 0.999911
vt 0.500661 0.750006
vt 0.500024 0.502517
vt 0.253952 0.761856
vt 0.369216 0.761856
vt 0.369216 0.991808
vt 0.253952 0.991808
vt 0.123832 0.501264
vt 0.124180 0.750315
vt 0.002091 0.753476
vt 0.001326 0.503335
vt 1.000000 1.000000
vt 1.000000 0.000000
vt 1.000000 0.000000
vt 1.000000 1.000000
vt 0.125829 0.999911
vt 0.125457 0.755906
vt 0.126238 0.747512
vt 0.125687 0.503316
vn 0.000000 0.000000 0.000000
vn 0.000000 0.000000 0.000000
vn 0.000000 0.000000 0.000000
vn 0.000000 0.000000 0.000000
vn 0.000000 0.006595 -0.999978
vn 0.000000 0.006595 -0.999978
vn 0.000000 0.006595 -0.999978
vn 0.000000 0.006595 -0.999978
vn 1.000000 0.000000 0.000000
vn 1.000000 0.000000 0.000000
vn 1.000000 0.000000 0.000000
vn 1.000000 0.000000 0.000000
vn 0.000000 0.999978 0.006596
vn 0.000000 0.999978 0.006596
vn 0.000000 0.999978 0.006596
vn 0.000000 0.999978 0.006596
vn -1.000000 0.000000 0.000000
vn -1.000000 0.000000 0.000000
vn -1.000000 0.000000 0.000000
vn -1.000000 0.000000 0.000000
vn 0.000000 -0.999978 -0.006595
vn 0.000000 -0.999978 -0.006595
vn 0.000000 -0.999978 -0.006595
vn 0.000000 -0.999978 -0.006595
vn 0.000000 -0.006595 0.999978
vn 0.000000 -0.006595 0.999978
vn 0.000000 -0.006595 0.999978
vn 0.000000 -0.006595 0.999978
vn 0.000000 0.000000 0.000000
vn 0.000000 0.000000 0.000000
vn 0.000000 0.000000 0.000000
vn 0.000000 0.000000 0.000000
vn 0.000000 0.000000 0.000000
vn 0.000000 0.000000 0.000000
vn 0.000000 0.000000 0.000000
vn 0.000000 0.000000 0.000000
vn 0.000000 0.000000 0.000000
vn 0.000000 0.000000 0.000000
vn 0.000000 0.000000 0.000000
vn 0.000000 0.000000 0.000000
s off
g Mesh initialShadingGroup polySurface7 polySurface1 polySurface13
f 43/121/121 44/122/122 52/123/123 51/124/124
f 45/125/125 48/126/126 47/127/127 46/128/128
f 41/129/129 45/130/130 46/131/131 42/132/132
f 42/133/133 46/134/134 47/135/135 43/136/136
f 43/121/137 47/137/138 48/138/139 44/122/140
f 45/139/141 41/140/142 44/141/143 48/142/144
f 49/143/145 50/144/146 51/145/147 52/146/148
f 44/147/149 41/148/150 49/149/151 52/150/152
f 42/133/153 43/136/154 51/151/155 50/152/156
f 41/129/157 42/132/158 50/153/159 49/154/160
