# This file uses centimeters as units for non-parametric coordinates.

mtllib gem1.mtl
g default
v -0.250025 -0.782213 0.126918
v -0.250025 -0.532238 0.253811
v -0.500000 -0.532238 0.126918
v 0.500000 -0.532238 0.126918
v 0.250025 -0.532238 0.253811
v 0.250025 -0.782213 0.126918
v -0.500000 0.532238 0.126918
v -0.250025 0.532238 0.253811
v -0.250025 0.782213 0.126918
v 0.250025 0.782213 0.126918
v 0.250025 0.532238 0.253811
v 0.500000 0.532238 0.126918
v -0.500000 0.532238 -0.126918
v -0.250025 0.782213 -0.126918
v -0.250025 0.532238 -0.253811
v 0.250025 0.532238 -0.253811
v 0.250025 0.782213 -0.126918
v 0.500000 0.532238 -0.126918
v -0.500000 -0.532238 -0.126918
v -0.250025 -0.532238 -0.253811
v -0.250025 -0.782213 -0.126918
v 0.250025 -0.782213 -0.126918
v 0.250025 -0.532238 -0.253811
v 0.500000 -0.532238 -0.126918
vt 0.422004 0.658139
vt 0.380529 0.658139
vt 0.380529 0.575173
vt 0.422004 0.382820
vt 0.422004 0.409331
vt 0.546445 0.658139
vt 0.504971 0.658139
vt 0.546445 0.575173
vt 0.587920 0.409331
vt 0.380529 0.243341
vt 0.380529 0.326307
vt 0.422004 0.522224
vt 0.504971 0.522224
vt 0.546445 0.243341
vt 0.380529 0.394293
vt 0.380529 0.507187
vt 0.422004 0.326307
vt 0.504971 0.326307
vt 0.546445 0.394293
vt 0.546445 0.507187
vt 0.422004 0.507187
vt 0.504971 0.507187
vt 0.504971 0.575173
vt 0.504971 0.409331
vt 0.422004 0.243341
vt 0.504971 0.243341
vt 0.422004 0.394293
vt 0.504971 0.394293
vt 0.422004 0.575173
vt 0.670887 0.409331
vt 0.670887 0.522224
vt 0.256088 0.409331
vt 0.339055 0.409331
vt 0.339055 0.522224
vt 0.256088 0.522224
vt 0.504971 0.382820
vt 0.587920 0.522224
vt 0.546445 0.326307
vn -0.707107 -0.707107 0.000000
vn -0.707107 -0.707107 0.000000
vn -0.707107 -0.707107 0.000000
vn -0.707107 -0.707107 0.000000
vn 0.000000 -0.452643 0.891692
vn 0.000000 -0.452643 0.891692
vn 0.000000 -0.452643 0.891692
vn 0.000000 -0.452643 0.891692
vn -0.452643 0.000000 0.891692
vn -0.452643 0.000000 0.891692
vn -0.452643 0.000000 0.891692
vn -0.452643 0.000000 0.891692
vn 0.707107 -0.707107 0.000000
vn 0.707107 -0.707107 0.000000
vn 0.707107 -0.707107 0.000000
vn 0.707107 -0.707107 0.000000
vn 0.452643 0.000000 0.891692
vn 0.452643 0.000000 0.891692
vn 0.452643 0.000000 0.891692
vn 0.452643 0.000000 0.891692
vn -0.707107 0.707107 0.000000
vn -0.707107 0.707107 0.000000
vn -0.707107 0.707107 0.000000
vn -0.707107 0.707107 0.000000
vn 0.000000 0.452643 0.891692
vn 0.000000 0.452643 0.891692
vn 0.000000 0.452643 0.891692
vn 0.000000 0.452643 0.891692
vn 0.707107 0.707107 0.000000
vn 0.707107 0.707107 0.000000
vn 0.707107 0.707107 0.000000
vn 0.707107 0.707107 0.000000
vn -0.452643 0.000000 -0.891692
vn -0.452643 0.000000 -0.891692
vn -0.452643 0.000000 -0.891692
vn -0.452643 0.000000 -0.891692
vn 0.000000 0.452643 -0.891692
vn 0.000000 0.452643 -0.891692
vn 0.000000 0.452643 -0.891692
vn 0.000000 0.452643 -0.891692
vn 0.452643 0.000000 -0.891692
vn 0.452643 0.000000 -0.891692
vn 0.452643 0.000000 -0.891692
vn 0.452643 0.000000 -0.891692
vn 0.000000 -0.452643 -0.891692
vn 0.000000 -0.452643 -0.891692
vn 0.000000 -0.452643 -0.891692
vn 0.000000 -0.452643 -0.891692
vn 0.000000 0.000000 1.000000
vn 0.000000 0.000000 1.000000
vn 0.000000 0.000000 1.000000
vn 0.000000 0.000000 1.000000
vn 0.000000 1.000000 0.000000
vn 0.000000 1.000000 0.000000
vn 0.000000 1.000000 0.000000
vn 0.000000 1.000000 0.000000
vn 0.000000 0.000000 -1.000000
vn 0.000000 0.000000 -1.000000
vn 0.000000 0.000000 -1.000000
vn 0.000000 0.000000 -1.000000
vn 0.000000 -1.000000 0.000000
vn 0.000000 -1.000000 0.000000
vn 0.000000 -1.000000 0.000000
vn 0.000000 -1.000000 0.000000
vn 1.000000 0.000000 0.000000
vn 1.000000 0.000000 0.000000
vn 1.000000 0.000000 0.000000
vn 1.000000 0.000000 0.000000
vn -1.000000 0.000000 0.000000
vn -1.000000 0.000000 0.000000
vn -1.000000 0.000000 0.000000
vn -1.000000 0.000000 0.000000
vn -0.412366 -0.412366 0.812348
vn -0.412366 -0.412366 0.812348
vn -0.412366 -0.412366 0.812348
vn 0.412366 -0.412366 0.812348
vn 0.412366 -0.412366 0.812348
vn 0.412366 -0.412366 0.812348
vn -0.412366 0.412366 0.812348
vn -0.412366 0.412366 0.812348
vn -0.412366 0.412366 0.812348
vn 0.412366 0.412366 0.812348
vn 0.412366 0.412366 0.812348
vn 0.412366 0.412366 0.812348
vn -0.412366 0.412366 -0.812348
vn -0.412366 0.412366 -0.812348
vn -0.412366 0.412366 -0.812348
vn 0.412366 0.412366 -0.812348
vn 0.412366 0.412366 -0.812348
vn 0.412366 0.412366 -0.812348
vn -0.412366 -0.412366 -0.812348
vn -0.412366 -0.412366 -0.812348
vn -0.412366 -0.412366 -0.812348
vn 0.412366 -0.412366 -0.812348
vn 0.412366 -0.412366 -0.812348
vn 0.412366 -0.412366 -0.812348
s off
g pCube1
usemtl lambert2SG
f 1/1/1 3/2/2 19/3/3 21/29/4
f 2/5/5 1/4/6 6/36/7 5/24/8
f 3/33/9 2/5/10 8/12/11 7/34/12
f 4/6/13 6/7/14 22/23/15 24/8/16
f 5/24/17 4/9/18 12/37/19 11/13/20
f 7/10/21 9/25/22 14/17/23 13/11/24
f 9/25/25 8/12/26 11/13/27 10/26/28
f 10/26/29 12/14/30 18/38/31 17/18/32
f 13/15/33 15/27/34 20/21/35 19/16/36
f 15/27/37 14/17/38 17/18/39 16/28/40
f 16/28/41 18/19/42 24/20/43 23/22/44
f 21/29/45 20/21/46 23/22/47 22/23/48
f 2/5/49 5/24/50 11/13/51 8/12/52
f 9/25/53 10/26/54 17/18/55 14/17/56
f 15/27/57 16/28/58 23/22/59 20/21/60
f 21/29/61 22/23/62 6/7/63 1/1/64
f 4/9/65 24/30/66 18/31/67 12/37/68
f 19/32/69 3/33/70 7/34/71 13/35/72
f 1/4/73 2/5/74 3/33/75
f 4/9/76 5/24/77 6/36/78
f 7/34/79 8/12/80 9/25/81
f 10/26/82 11/13/83 12/37/84
f 13/11/85 14/17/86 15/27/87
f 16/28/88 17/18/89 18/38/90
f 19/16/91 20/21/92 21/29/93
f 22/23/94 23/22/95 24/20/96
