# This file uses centimeters as units for non-parametric coordinates.

mtllib glassDesign.mtl
g default
v 7.999960 0.379293 -4.977428
v 7.999960 2.879293 -4.977428
v 3.999295 2.879293 -0.095705
v 7.881422 2.879293 -4.977479
v 4.001205 0.379293 -0.095706
v 7.881422 0.379293 -4.977479
vt 0.564608 0.492728
vt 0.564608 0.594546
vt 0.564608 0.696363
vt 0.462791 0.696363
vt 0.564608 0.798180
vt 0.462791 0.798180
vt 0.666426 0.492728
vt 0.666426 0.594546
vn -0.782762 -0.000299 -0.622321
vn -0.782762 -0.000299 -0.622321
vn -0.782762 -0.000299 -0.622321
vn -0.782762 -0.000299 -0.622321
vn 0.000433 0.000000 -1.000000
vn 0.000433 0.000000 -1.000000
vn 0.000433 0.000000 -1.000000
vn 0.000433 0.000000 -1.000000
s off
g initialShadingGroup Glass_Left
f 3/4/1 4/3/2 6/5/3 5/6/4
f 1/1/5 6/7/6 4/8/7 2/2/8
g default
v -3.999375 0.379293 -0.095705
v -7.881502 0.379293 -4.977479
v -4.001285 2.879293 -0.095706
v -7.881502 2.879293 -4.977479
vt 0.868286 0.429218
vt 0.766469 0.429218
vt 0.868286 0.531035
vt 0.766469 0.531035
vn 0.782762 0.000299 -0.622321
vn 0.782762 0.000299 -0.622321
vn 0.782762 0.000299 -0.622321
vn 0.782762 0.000299 -0.622321
s off
g initialShadingGroup Glass_Right
f 7/10/9 8/9/10 10/11/11 9/12/12
g default
v -4.000000 2.879253 -0.094628
v 4.000000 2.879253 -0.094628
v -4.000000 0.379253 -0.094628
v 4.000000 0.379253 -0.094628
vt 0.256364 0.429218
vt 0.154547 0.429218
vt 0.256364 0.531035
vt 0.154547 0.531035
vn 0.000000 0.000000 -1.000000
vn 0.000000 0.000000 -1.000000
vn 0.000000 0.000000 -1.000000
vn 0.000000 0.000000 -1.000000
s off
g initialShadingGroup Glass_Front
f 11/14/13 12/13/14 14/15/15 13/16/16
