# This file uses centimeters as units for non-parametric coordinates.

mtllib Hand.mtl
g default
v -0.522867 3.502535 -1.113337
v -0.534809 3.498809 -2.249516
v 0.508304 3.504441 -2.260498
v 0.520246 3.508167 -1.124319
v -0.539136 6.497184 -1.122988
v -0.551078 6.493458 -2.259166
v 0.492033 6.499089 -2.270148
v 0.503975 6.502815 -1.133969
vt 0.689934 0.495565
vt 0.689339 0.380423
vt 0.748153 0.380419
vt 0.748748 0.495561
vt 0.813120 0.496101
vt 0.757901 0.498796
vt 0.759715 0.389343
vt 0.814246 0.387968
vt 0.755592 0.371330
vt 0.758330 -0.003914
vt 0.811997 0.002569
vt 0.817648 0.369424
vt 0.692367 0.374926
vt 0.692367 0.005923
vt 0.752858 -0.000007
vt 0.752858 0.368996
vt 0.686737 0.005833
vt 0.681196 0.371038
vt 0.617573 0.373596
vt 0.623113 0.008391
vt 0.821522 0.001867
vt 0.823275 0.373275
vt 0.883052 0.367175
vt 0.881298 -0.004233
vn 0.005433 -0.999980 0.003222
vn 0.005433 -0.999980 0.003222
vn 0.005433 -0.999980 0.003222
vn 0.005433 -0.999980 0.003222
vn -0.005433 0.999980 -0.003222
vn -0.005433 0.999980 -0.003222
vn -0.005433 0.999980 -0.003222
vn -0.005433 0.999980 -0.003222
vn -0.999930 -0.005398 0.010527
vn -0.999930 -0.005398 0.010527
vn -0.999930 -0.005398 0.010527
vn -0.999930 -0.005398 0.010527
vn -0.010510 -0.003279 -0.999939
vn -0.010510 -0.003279 -0.999939
vn -0.010510 -0.003279 -0.999939
vn -0.010510 -0.003279 -0.999939
vn 0.999930 0.005399 -0.010527
vn 0.999930 0.005399 -0.010527
vn 0.999930 0.005399 -0.010527
vn 0.999930 0.005399 -0.010527
vn 0.010509 0.003279 0.999940
vn 0.010509 0.003279 0.999939
vn 0.010509 0.003279 0.999940
vn 0.010509 0.003279 0.999939
s off
g polySurface1 Mesh
usemtl blinn1SG
f 1/1/1 2/2/2 3/3/3 4/4/4
f 5/5/5 8/6/6 7/7/7 6/8/8
f 1/9/9 5/10/10 6/11/11 2/12/12
f 2/13/13 6/14/14 7/15/15 3/16/16
f 3/17/17 7/18/18 8/19/19 4/20/20
f 5/21/21 1/22/22 4/23/23 8/24/24
