# This file uses centimeters as units for non-parametric coordinates.

mtllib leg1.mtl
g default
v -0.521593 3.497354 0.000451
v -0.521593 3.497354 1.136699
v 0.521593 3.497354 1.136699
v 0.521592 3.497354 0.000451
v -0.521593 0.502646 0.000451
v -0.521592 0.502646 1.136699
v 0.521593 0.502646 1.136698
v 0.521593 0.502646 0.000451
vt 0.124564 0.372844
vt 0.123284 0.495731
vt 0.062259 0.497328
vt 0.063538 0.374441
vt 0.179068 0.489942
vt 0.130391 0.486732
vt 0.129081 0.397994
vt 0.177758 0.401205
vt 0.250211 0.370491
vt 0.250211 0.001371
vt 0.190639 -0.001314
vt 0.190639 0.367806
vt 0.000878 0.373364
vt 0.000878 0.010074
vt 0.062985 0.010074
vt 0.062985 0.373364
vt 0.065586 0.375905
vt 0.065375 0.003473
vt 0.124947 0.003338
vt 0.125158 0.375770
vt 0.000807 0.009620
vt 0.000807 0.377727
vt 0.059514 0.377727
vt 0.059514 0.009620
vn 0.000000 1.000000 0.000000
vn 0.000000 1.000000 0.000000
vn 0.000000 1.000000 0.000000
vn 0.000000 1.000000 0.000000
vn 0.000000 -1.000000 0.000000
vn 0.000000 -1.000000 0.000000
vn 0.000000 -1.000000 0.000000
vn 0.000000 -1.000000 0.000000
vn -1.000000 -0.000000 0.000000
vn -1.000000 -0.000000 0.000000
vn -1.000000 -0.000000 0.000000
vn -1.000000 -0.000000 0.000000
vn 0.000000 -0.000000 1.000000
vn 0.000000 -0.000000 1.000000
vn 0.000000 -0.000000 1.000000
vn 0.000000 -0.000000 1.000000
vn 1.000000 0.000000 -0.000000
vn 1.000000 0.000000 -0.000000
vn 1.000000 0.000000 -0.000000
vn 1.000000 0.000000 -0.000000
vn 0.000000 0.000000 -1.000000
vn 0.000000 0.000000 -1.000000
vn 0.000000 0.000000 -1.000000
vn 0.000000 0.000000 -1.000000
s off
g polySurface3 Mesh
usemtl Material
f 1/1/1 2/2/2 3/3/3 4/4/4
f 5/5/5 8/6/6 7/7/7 6/8/8
f 1/9/9 5/10/10 6/11/11 2/12/12
f 2/13/13 6/14/14 7/15/15 3/16/16
f 3/17/17 7/18/18 8/19/19 4/20/20
f 5/21/21 1/22/22 4/23/23 8/24/24
