# This file uses centimeters as units for non-parametric coordinates.

mtllib spincap.mtl
g default
v 3.228413 -1.353541 -1.048975
v 2.746253 -1.353541 -1.995269
v 1.995269 -1.353541 -2.746252
v 1.048975 -1.353541 -3.228413
v 0.000000 -1.353541 -3.394554
v -1.048975 -1.353541 -3.228413
v -1.995269 -1.353541 -2.746252
v -2.746252 -1.353541 -1.995269
v -3.228412 -1.353541 -1.048975
v -3.394553 -1.353541 0.000000
v -3.228412 -1.353541 1.048975
v -2.746251 -1.353541 1.995268
v -1.995268 -1.353541 2.746251
v -1.048975 -1.353541 3.228412
v -0.000000 -1.353541 3.394553
v 1.048974 -1.353541 3.228412
v 1.995268 -1.353541 2.746251
v 2.746251 -1.353541 1.995268
v 3.228411 -1.353541 1.048974
v 3.394553 -1.353541 0.000000
v 3.228413 1.353541 -1.048975
v 2.746253 1.353541 -1.995269
v 1.995269 1.353541 -2.746252
v 1.048975 1.353541 -3.228413
v 0.000000 1.353541 -3.394554
v -1.048975 1.353541 -3.228413
v -1.995269 1.353541 -2.746252
v -2.746252 1.353541 -1.995269
v -3.228412 1.353541 -1.048975
v -3.394553 1.353541 0.000000
v -3.228412 1.353541 1.048975
v -2.746251 1.353541 1.995268
v -1.995268 1.353541 2.746251
v -1.048975 1.353541 3.228412
v -0.000000 1.353541 3.394553
v 1.048974 1.353541 3.228412
v 1.995268 1.353541 2.746251
v 2.746251 1.353541 1.995268
v 3.228411 1.353541 1.048974
v 3.394553 1.353541 0.000000
v 0.000000 -1.353541 0.000000
v 0.000000 1.353541 0.000000
vt 0.648603 0.107966
vt 0.626409 0.064408
vt 0.591842 0.029841
vt 0.548284 0.007647
vt 0.500000 -0.000000
vt 0.451716 0.007647
vt 0.408159 0.029841
vt 0.373591 0.064409
vt 0.351397 0.107966
vt 0.343750 0.156250
vt 0.351397 0.204534
vt 0.373591 0.248091
vt 0.408159 0.282659
vt 0.451716 0.304853
vt 0.500000 0.312500
vt 0.548284 0.304853
vt 0.591841 0.282659
vt 0.626409 0.248091
vt 0.648603 0.204534
vt 0.656250 0.156250
vt 0.375000 0.312500
vt 0.387500 0.312500
vt 0.400000 0.312500
vt 0.412500 0.312500
vt 0.425000 0.312500
vt 0.437500 0.312500
vt 0.450000 0.312500
vt 0.462500 0.312500
vt 0.475000 0.312500
vt 0.487500 0.312500
vt 0.500000 0.312500
vt 0.512500 0.312500
vt 0.525000 0.312500
vt 0.537500 0.312500
vt 0.562500 0.312500
vt 0.575000 0.312500
vt 0.587500 0.312500
vt 0.600000 0.312500
vt 0.612500 0.312500
vt 0.625000 0.312500
vt 0.375000 0.688440
vt 0.387500 0.688440
vt 0.400000 0.688440
vt 0.412500 0.688440
vt 0.425000 0.688440
vt 0.437500 0.688440
vt 0.450000 0.688440
vt 0.462500 0.688440
vt 0.475000 0.688440
vt 0.487500 0.688440
vt 0.500000 0.688440
vt 0.512500 0.688440
vt 0.525000 0.688440
vt 0.537500 0.688440
vt 0.562500 0.688440
vt 0.575000 0.688440
vt 0.587500 0.688440
vt 0.600000 0.688440
vt 0.612500 0.688440
vt 0.625000 0.688440
vt 0.648603 0.795466
vt 0.626409 0.751908
vt 0.591842 0.717341
vt 0.548284 0.695147
vt 0.500000 0.687500
vt 0.451716 0.695147
vt 0.408159 0.717341
vt 0.373591 0.751909
vt 0.351397 0.795466
vt 0.343750 0.843750
vt 0.351397 0.892034
vt 0.373591 0.935591
vt 0.408159 0.970159
vt 0.451716 0.992353
vt 0.500000 1.000000
vt 0.548284 0.992353
vt 0.591841 0.970159
vt 0.626409 0.935591
vt 0.648603 0.892034
vt 0.656250 0.843750
vt 0.500000 0.150000
vt 0.500000 0.837500
vn 0.951057 0.000000 -0.309016
vn 0.809017 0.000000 -0.587785
vn 0.809017 0.000000 -0.587785
vn 0.951057 0.000000 -0.309016
vn 0.587785 0.000000 -0.809017
vn 0.587785 0.000000 -0.809017
vn 0.309017 0.000000 -0.951057
vn 0.309017 0.000000 -0.951057
vn -0.000000 0.000000 -1.000000
vn -0.000000 0.000000 -1.000000
vn -0.309017 0.000000 -0.951056
vn -0.309017 0.000000 -0.951056
vn -0.587785 0.000000 -0.809017
vn -0.587785 0.000000 -0.809017
vn -0.809017 0.000000 -0.587785
vn -0.809017 0.000000 -0.587785
vn -0.951056 0.000000 -0.309017
vn -0.951056 0.000000 -0.309017
vn -1.000000 0.000000 0.000000
vn -1.000000 0.000000 0.000000
vn -0.951056 0.000000 0.309017
vn -0.951056 0.000000 0.309017
vn -0.809017 0.000000 0.587785
vn -0.809017 0.000000 0.587785
vn -0.587785 0.000000 0.809017
vn -0.587785 0.000000 0.809017
vn -0.453990 0.000000 0.891007
vn -0.453990 0.000000 0.891007
vn 0.453991 0.000000 0.891006
vn 0.587785 0.000000 0.809017
vn 0.587785 0.000000 0.809017
vn 0.453991 0.000000 0.891006
vn 0.809017 0.000000 0.587785
vn 0.809017 0.000000 0.587785
vn 0.951056 0.000000 0.309017
vn 0.951056 0.000000 0.309017
vn 1.000000 0.000000 0.000001
vn 1.000000 0.000000 0.000001
vn 0.000000 -1.000000 0.000000
vn 0.000000 -1.000000 0.000000
vn 0.000000 -1.000000 0.000000
vn 0.000000 -1.000000 0.000000
vn 0.000000 -1.000000 0.000000
vn 0.000000 -1.000000 0.000000
vn 0.000000 -1.000000 0.000000
vn 0.000000 -1.000000 0.000000
vn 0.000000 -1.000000 0.000000
vn 0.000000 -1.000000 0.000000
vn 0.000000 -1.000000 0.000000
vn 0.000000 -1.000000 0.000000
vn 0.000000 -1.000000 0.000000
vn 0.000000 -1.000000 0.000000
vn 0.000000 -1.000000 0.000000
vn 0.000000 -1.000000 0.000000
vn 0.000000 -1.000000 0.000000
vn 0.000000 -1.000000 0.000000
vn 0.000000 -1.000000 0.000000
vn 0.000000 -1.000000 0.000000
vn 0.000000 -1.000000 0.000000
vn 0.000000 1.000000 0.000000
vn 0.000000 1.000000 0.000000
vn 0.000000 1.000000 0.000000
vn 0.000000 1.000000 0.000000
vn 0.000000 1.000000 0.000000
vn 0.000000 1.000000 0.000000
vn 0.000000 1.000000 0.000000
vn 0.000000 1.000000 0.000000
vn 0.000000 1.000000 0.000000
vn 0.000000 1.000000 0.000000
vn 0.000000 1.000000 0.000000
vn 0.000000 1.000000 0.000000
vn 0.000000 1.000000 0.000000
vn 0.000000 1.000000 0.000000
vn 0.000000 1.000000 0.000000
vn 0.000000 1.000000 0.000000
vn 0.000000 1.000000 0.000000
vn 0.000000 1.000000 0.000000
vn 0.000000 1.000000 0.000000
vn 0.000000 1.000000 0.000000
vn 0.000000 1.000000 0.000000
s 1
g pCylinder1
usemtl initialShadingGroup
f 1/21/1 2/22/2 22/42/3 21/41/4
f 2/22/2 3/23/5 23/43/6 22/42/3
f 3/23/5 4/24/7 24/44/8 23/43/6
f 4/24/7 5/25/9 25/45/10 24/44/8
f 5/25/9 6/26/11 26/46/12 25/45/10
f 6/26/11 7/27/13 27/47/14 26/46/12
f 7/27/13 8/28/15 28/48/16 27/47/14
f 8/28/15 9/29/17 29/49/18 28/48/16
f 9/29/17 10/30/19 30/50/20 29/49/18
f 10/30/19 11/31/21 31/51/22 30/50/20
f 11/31/21 12/32/23 32/52/24 31/51/22
f 12/32/23 13/33/25 33/53/26 32/52/24
f 13/33/25 14/34/27 34/54/28 33/53/26
f 16/35/29 17/36/30 37/56/31 36/55/32
f 17/36/30 18/37/33 38/57/34 37/56/31
f 18/37/33 19/38/35 39/58/36 38/57/34
f 19/38/35 20/39/37 40/59/38 39/58/36
f 20/39/37 1/40/1 21/60/4 40/59/38
s 3
f 2/2/39 1/1/40 41/81/41
f 3/3/42 2/2/39 41/81/41
f 4/4/43 3/3/42 41/81/41
f 5/5/44 4/4/43 41/81/41
f 6/6/45 5/5/44 41/81/41
f 7/7/46 6/6/45 41/81/41
f 8/8/47 7/7/46 41/81/41
f 9/9/48 8/8/47 41/81/41
f 10/10/49 9/9/48 41/81/41
f 11/11/50 10/10/49 41/81/41
f 12/12/51 11/11/50 41/81/41
f 13/13/52 12/12/51 41/81/41
f 14/14/53 13/13/52 41/81/41
f 15/15/54 14/14/53 41/81/41
f 16/16/55 15/15/54 41/81/41
f 17/17/56 16/16/55 41/81/41
f 18/18/57 17/17/56 41/81/41
f 19/19/58 18/18/57 41/81/41
f 20/20/59 19/19/58 41/81/41
f 1/1/40 20/20/59 41/81/41
s 4
f 21/79/60 22/78/61 42/82/62
f 22/78/61 23/77/63 42/82/62
f 23/77/63 24/76/64 42/82/62
f 24/76/64 25/75/65 42/82/62
f 25/75/65 26/74/66 42/82/62
f 26/74/66 27/73/67 42/82/62
f 27/73/67 28/72/68 42/82/62
f 28/72/68 29/71/69 42/82/62
f 29/71/69 30/70/70 42/82/62
f 30/70/70 31/69/71 42/82/62
f 31/69/71 32/68/72 42/82/62
f 32/68/72 33/67/73 42/82/62
f 33/67/73 34/66/74 42/82/62
f 34/66/74 35/65/75 42/82/62
f 35/65/75 36/64/76 42/82/62
f 36/64/76 37/63/77 42/82/62
f 37/63/77 38/62/78 42/82/62
f 38/62/78 39/61/79 42/82/62
f 39/61/79 40/80/80 42/82/62
f 40/80/80 21/79/60 42/82/62
g default
v 3.228413 -1.353541 -1.048975
v 2.746253 -1.353541 -1.995269
v 1.995269 -1.353541 -2.746252
v 1.048975 -1.353541 -3.228413
v 0.000000 -1.353541 -3.394554
v -1.048975 -1.353541 -3.228413
v -1.995269 -1.353541 -2.746252
v -2.746252 -1.353541 -1.995269
v -3.228412 -1.353541 -1.048975
v -3.394553 -1.353541 0.000000
v -3.228412 -1.353541 1.048975
v -2.746251 -1.353541 1.995268
v -1.995268 -1.353541 2.746251
v -1.048975 -1.353541 3.228412
v -0.000000 -1.353541 3.394553
v 1.048974 -1.353541 3.228412
v 1.995268 -1.353541 2.746251
v 2.746251 -1.353541 1.995268
v 3.228411 -1.353541 1.048974
v 3.394553 -1.353541 0.000000
v 3.228413 1.353541 -1.048975
v 2.746253 1.353541 -1.995269
v 1.995269 1.353541 -2.746252
v 1.048975 1.353541 -3.228413
v 0.000000 1.353541 -3.394554
v -1.048975 1.353541 -3.228413
v -1.995269 1.353541 -2.746252
v -2.746252 1.353541 -1.995269
v -3.228412 1.353541 -1.048975
v -3.394553 1.353541 0.000000
v -3.228412 1.353541 1.048975
v -2.746251 1.353541 1.995268
v -1.995268 1.353541 2.746251
v -1.048975 1.353541 3.228412
v -0.000000 1.353541 3.394553
v 1.048974 1.353541 3.228412
v 1.995268 1.353541 2.746251
v 2.746251 1.353541 1.995268
v 3.228411 1.353541 1.048974
v 3.394553 1.353541 0.000000
v 0.000000 -1.353541 0.000000
v 0.000000 1.353541 0.000000
vt 0.648603 0.107966
vt 0.626409 0.064408
vt 0.591842 0.029841
vt 0.548284 0.007647
vt 0.500000 -0.000000
vt 0.451716 0.007647
vt 0.408159 0.029841
vt 0.373591 0.064409
vt 0.351397 0.107966
vt 0.343750 0.156250
vt 0.351397 0.204534
vt 0.373591 0.248091
vt 0.408159 0.282659
vt 0.451716 0.304853
vt 0.500000 0.312500
vt 0.548284 0.304853
vt 0.591841 0.282659
vt 0.626409 0.248091
vt 0.648603 0.204534
vt 0.656250 0.156250
vt 0.375000 0.312500
vt 0.387500 0.312500
vt 0.400000 0.312500
vt 0.412500 0.312500
vt 0.425000 0.312500
vt 0.437500 0.312500
vt 0.450000 0.312500
vt 0.462500 0.312500
vt 0.475000 0.312500
vt 0.487500 0.312500
vt 0.500000 0.312500
vt 0.512500 0.312500
vt 0.525000 0.312500
vt 0.537500 0.312500
vt 0.562500 0.312500
vt 0.575000 0.312500
vt 0.587500 0.312500
vt 0.600000 0.312500
vt 0.612500 0.312500
vt 0.625000 0.312500
vt 0.375000 0.688440
vt 0.387500 0.688440
vt 0.400000 0.688440
vt 0.412500 0.688440
vt 0.425000 0.688440
vt 0.437500 0.688440
vt 0.450000 0.688440
vt 0.462500 0.688440
vt 0.475000 0.688440
vt 0.487500 0.688440
vt 0.500000 0.688440
vt 0.512500 0.688440
vt 0.525000 0.688440
vt 0.537500 0.688440
vt 0.562500 0.688440
vt 0.575000 0.688440
vt 0.587500 0.688440
vt 0.600000 0.688440
vt 0.612500 0.688440
vt 0.625000 0.688440
vt 0.648603 0.795466
vt 0.626409 0.751908
vt 0.591842 0.717341
vt 0.548284 0.695147
vt 0.500000 0.687500
vt 0.451716 0.695147
vt 0.408159 0.717341
vt 0.373591 0.751909
vt 0.351397 0.795466
vt 0.343750 0.843750
vt 0.351397 0.892034
vt 0.373591 0.935591
vt 0.408159 0.970159
vt 0.451716 0.992353
vt 0.500000 1.000000
vt 0.548284 0.992353
vt 0.591841 0.970159
vt 0.626409 0.935591
vt 0.648603 0.892034
vt 0.656250 0.843750
vt 0.500000 0.150000
vt 0.500000 0.837500
vn -0.951057 0.000000 0.309016
vn -0.951057 0.000000 0.309016
vn -0.809017 0.000000 0.587785
vn -0.809017 0.000000 0.587785
vn -0.587785 0.000000 0.809017
vn -0.587785 0.000000 0.809017
vn -0.309017 0.000000 0.951057
vn -0.309017 0.000000 0.951057
vn 0.000000 0.000000 1.000000
vn 0.000000 0.000000 1.000000
vn 0.309017 0.000000 0.951056
vn 0.309017 0.000000 0.951056
vn 0.587785 0.000000 0.809017
vn 0.587785 0.000000 0.809017
vn 0.809017 0.000000 0.587785
vn 0.809017 0.000000 0.587785
vn 0.951056 0.000000 0.309017
vn 0.951056 0.000000 0.309017
vn 1.000000 0.000000 0.000000
vn 1.000000 0.000000 0.000000
vn 0.951056 0.000000 -0.309017
vn 0.951056 0.000000 -0.309017
vn 0.809017 0.000000 -0.587785
vn 0.809017 0.000000 -0.587785
vn 0.587785 0.000000 -0.809017
vn 0.587785 0.000000 -0.809017
vn 0.453990 0.000000 -0.891007
vn 0.453990 0.000000 -0.891007
vn -0.453991 0.000000 -0.891006
vn -0.453991 0.000000 -0.891006
vn -0.587785 0.000000 -0.809017
vn -0.587785 0.000000 -0.809017
vn -0.809017 0.000000 -0.587785
vn -0.809017 0.000000 -0.587785
vn -0.951056 0.000000 -0.309017
vn -0.951056 0.000000 -0.309017
vn -1.000000 0.000000 -0.000001
vn -1.000000 0.000000 -0.000001
vn 0.000000 1.000000 0.000000
vn 0.000000 1.000000 0.000000
vn 0.000000 1.000000 0.000000
vn 0.000000 1.000000 0.000000
vn 0.000000 1.000000 0.000000
vn 0.000000 1.000000 0.000000
vn 0.000000 1.000000 0.000000
vn 0.000000 1.000000 0.000000
vn 0.000000 1.000000 0.000000
vn 0.000000 1.000000 0.000000
vn 0.000000 1.000000 0.000000
vn 0.000000 1.000000 0.000000
vn 0.000000 1.000000 0.000000
vn 0.000000 1.000000 0.000000
vn 0.000000 1.000000 0.000000
vn 0.000000 1.000000 0.000000
vn 0.000000 1.000000 0.000000
vn 0.000000 1.000000 0.000000
vn 0.000000 1.000000 0.000000
vn 0.000000 1.000000 0.000000
vn 0.000000 1.000000 0.000000
vn 0.000000 -1.000000 0.000000
vn 0.000000 -1.000000 0.000000
vn 0.000000 -1.000000 0.000000
vn 0.000000 -1.000000 0.000000
vn 0.000000 -1.000000 0.000000
vn 0.000000 -1.000000 0.000000
vn 0.000000 -1.000000 0.000000
vn 0.000000 -1.000000 0.000000
vn 0.000000 -1.000000 0.000000
vn 0.000000 -1.000000 0.000000
vn 0.000000 -1.000000 0.000000
vn 0.000000 -1.000000 0.000000
vn 0.000000 -1.000000 0.000000
vn 0.000000 -1.000000 0.000000
vn 0.000000 -1.000000 0.000000
vn 0.000000 -1.000000 0.000000
vn 0.000000 -1.000000 0.000000
vn 0.000000 -1.000000 0.000000
vn 0.000000 -1.000000 0.000000
vn 0.000000 -1.000000 0.000000
vn 0.000000 -1.000000 0.000000
s 1
g pCylinder2
usemtl initialShadingGroup
f 43/103/81 63/123/82 64/124/83 44/104/84
f 44/104/84 64/124/83 65/125/85 45/105/86
f 45/105/86 65/125/85 66/126/87 46/106/88
f 46/106/88 66/126/87 67/127/89 47/107/90
f 47/107/90 67/127/89 68/128/91 48/108/92
f 48/108/92 68/128/91 69/129/93 49/109/94
f 49/109/94 69/129/93 70/130/95 50/110/96
f 50/110/96 70/130/95 71/131/97 51/111/98
f 51/111/98 71/131/97 72/132/99 52/112/100
f 52/112/100 72/132/99 73/133/101 53/113/102
f 53/113/102 73/133/101 74/134/103 54/114/104
f 54/114/104 74/134/103 75/135/105 55/115/106
f 55/115/106 75/135/105 76/136/107 56/116/108
f 58/117/109 78/137/110 79/138/111 59/118/112
f 59/118/112 79/138/111 80/139/113 60/119/114
f 60/119/114 80/139/113 81/140/115 61/120/116
f 61/120/116 81/140/115 82/141/117 62/121/118
f 62/121/118 82/141/117 63/142/82 43/122/81
s 3
f 44/84/119 83/163/120 43/83/121
f 45/85/122 83/163/120 44/84/119
f 46/86/123 83/163/120 45/85/122
f 47/87/124 83/163/120 46/86/123
f 48/88/125 83/163/120 47/87/124
f 49/89/126 83/163/120 48/88/125
f 50/90/127 83/163/120 49/89/126
f 51/91/128 83/163/120 50/90/127
f 52/92/129 83/163/120 51/91/128
f 53/93/130 83/163/120 52/92/129
f 54/94/131 83/163/120 53/93/130
f 55/95/132 83/163/120 54/94/131
f 56/96/133 83/163/120 55/95/132
f 57/97/134 83/163/120 56/96/133
f 58/98/135 83/163/120 57/97/134
f 59/99/136 83/163/120 58/98/135
f 60/100/137 83/163/120 59/99/136
f 61/101/138 83/163/120 60/100/137
f 62/102/139 83/163/120 61/101/138
f 43/83/121 83/163/120 62/102/139
s 4
f 63/161/140 84/164/141 64/160/142
f 64/160/142 84/164/141 65/159/143
f 65/159/143 84/164/141 66/158/144
f 66/158/144 84/164/141 67/157/145
f 67/157/145 84/164/141 68/156/146
f 68/156/146 84/164/141 69/155/147
f 69/155/147 84/164/141 70/154/148
f 70/154/148 84/164/141 71/153/149
f 71/153/149 84/164/141 72/152/150
f 72/152/150 84/164/141 73/151/151
f 73/151/151 84/164/141 74/150/152
f 74/150/152 84/164/141 75/149/153
f 75/149/153 84/164/141 76/148/154
f 76/148/154 84/164/141 77/147/155
f 77/147/155 84/164/141 78/146/156
f 78/146/156 84/164/141 79/145/157
f 79/145/157 84/164/141 80/144/158
f 80/144/158 84/164/141 81/143/159
f 81/143/159 84/164/141 82/162/160
f 82/162/160 84/164/141 63/161/140
