# This file uses centimeters as units for non-parametric coordinates.

mtllib wings.mtl
g default
v -17.180250 1.434146 -7.115508
v -15.722621 1.266502 -7.115508
v -11.704213 0.658233 -7.115507
v -9.042371 0.246752 -5.244918
v -6.899578 0.246752 -5.244918
v -17.180250 2.383389 -7.115508
v -15.722621 2.383389 -7.115508
v -11.704213 2.383390 -7.115507
v -9.042371 2.506062 -5.244918
v -6.899578 3.031366 -5.244918
v -17.180250 2.383389 -7.188424
v -15.722621 2.383389 -7.188424
v -11.704213 2.383390 -7.188424
v -9.042371 2.506062 -7.188424
v -6.899578 3.031366 -7.188424
v -17.180250 2.383389 -9.131929
v -15.722621 2.383389 -9.131929
v -11.704213 2.383390 -9.131929
v -9.042371 2.506062 -9.131929
v -6.899578 3.031366 -9.131929
v -17.180250 2.383389 -9.246702
v -15.722621 2.383389 -11.075434
v -11.704213 2.383390 -11.075434
v -9.042371 2.506062 -11.075434
v -6.899578 3.031366 -11.075434
v -17.180250 1.434146 -9.246702
v -15.722621 1.266502 -11.075434
v -11.704213 0.658233 -11.075434
v -9.042371 0.246752 -11.075434
v -6.899578 0.246752 -11.075434
v -17.180250 1.434146 -9.131929
v -15.722621 1.266502 -9.131929
v -11.704213 0.658233 -9.131929
v -9.042371 0.246752 -9.131929
v -6.899578 0.246752 -9.131929
v -17.180250 1.434146 -7.188423
v -15.722621 1.266502 -7.188423
v -11.704213 0.658233 -7.188423
v -9.042371 0.246752 -7.188423
v -6.899578 0.246752 -7.188423
vt 0.173601 0.019009
vt 0.209503 0.019009
vt 0.209503 0.162618
vt 0.173601 0.162618
vt 0.245406 0.019009
vt 0.245406 0.162618
vt 0.281308 0.019009
vt 0.281308 0.162618
vt 0.317210 0.019009
vt 0.317210 0.162618
vt 0.209503 0.210487
vt 0.173601 0.210487
vt 0.245406 0.210487
vt 0.281308 0.210487
vt 0.317210 0.210487
vt 0.209503 0.258357
vt 0.173601 0.258357
vt 0.245406 0.258357
vt 0.281308 0.258357
vt 0.317210 0.258357
vt 0.209503 0.306226
vt 0.173601 0.306226
vt 0.245406 0.306226
vt 0.281308 0.306226
vt 0.317210 0.306226
vt 0.209503 0.449835
vt 0.173601 0.449835
vt 0.245406 0.449835
vt 0.281308 0.449835
vt 0.317210 0.449835
vt 0.209503 0.497705
vt 0.173601 0.497705
vt 0.245406 0.497705
vt 0.281308 0.497705
vt 0.317210 0.497705
vt 0.209503 0.545575
vt 0.173601 0.545575
vt 0.245406 0.545575
vt 0.281308 0.545575
vt 0.317210 0.545575
vt 0.209503 0.593444
vt 0.173601 0.593444
vt 0.245406 0.593444
vt 0.281308 0.593444
vt 0.317210 0.593444
vt 0.412949 0.019009
vt 0.460819 0.019009
vt 0.460819 0.162618
vt 0.412949 0.162618
vt 0.365080 0.019009
vt 0.365080 0.162618
vt 0.029992 0.019009
vt 0.077862 0.019009
vt 0.077862 0.162618
vt 0.029992 0.162618
vt 0.125731 0.019009
vt 0.125731 0.162618
vn 0.000000 0.000000 1.000000
vn 0.000000 0.000000 1.000000
vn 0.000000 0.000000 1.000000
vn 0.000000 0.000000 1.000000
vn 0.000000 0.000000 1.000000
vn -0.373783 0.000000 0.927516
vn -0.327800 0.000000 0.944747
vn 0.000000 0.000000 1.000000
vn -0.373783 0.000000 0.927516
vn -0.301774 0.000000 0.953380
vn -0.281359 0.000000 0.959603
vn -0.327800 0.000000 0.944747
vn -0.301774 0.000000 0.953380
vn 0.000000 0.000000 1.000000
vn 0.000000 0.000000 1.000000
vn -0.281359 0.000000 0.959603
vn 0.000000 1.000000 0.000000
vn 0.000000 1.000000 0.000000
vn 0.000000 1.000000 0.000000
vn 0.000000 1.000000 0.000000
vn 0.000000 1.000000 0.000000
vn -0.042687 0.999088 0.000000
vn -0.022682 0.999743 0.000000
vn 0.000000 1.000000 0.000000
vn -0.042687 0.999088 0.000000
vn -0.185603 0.982625 0.000000
vn -0.146909 0.989150 0.000000
vn -0.022682 0.999743 0.000000
vn -0.185603 0.982625 0.000000
vn -0.238099 0.971241 0.000000
vn -0.238099 0.971241 0.000000
vn -0.146909 0.989150 0.000000
vn 0.000000 1.000000 0.000000
vn 0.000000 1.000000 0.000000
vn 0.000000 1.000000 0.000000
vn 0.000000 1.000000 0.000000
vn 0.000000 1.000000 0.000000
vn -0.022682 0.999743 0.000000
vn -0.018360 0.999831 0.000000
vn 0.000000 1.000000 0.000000
vn -0.022682 0.999743 0.000000
vn -0.146909 0.989150 0.000000
vn -0.133655 0.991028 0.000000
vn -0.018360 0.999831 0.000000
vn -0.146909 0.989150 0.000000
vn -0.238099 0.971241 0.000000
vn -0.238099 0.971241 0.000000
vn -0.133655 0.991028 0.000000
vn 0.000000 1.000000 0.000000
vn 0.000000 1.000000 0.000000
vn 0.000000 1.000000 0.000000
vn 0.000000 1.000000 0.000000
vn 0.000000 1.000000 0.000000
vn -0.018360 0.999831 0.000000
vn -0.018360 0.999831 0.000000
vn 0.000000 1.000000 0.000000
vn -0.018360 0.999831 0.000000
vn -0.133655 0.991028 0.000000
vn -0.133655 0.991028 0.000000
vn -0.018360 0.999831 0.000000
vn -0.133655 0.991028 0.000000
vn -0.238099 0.971241 0.000000
vn -0.238099 0.971241 0.000000
vn -0.133655 0.991028 0.000000
vn -0.781985 0.000000 -0.623298
vn -0.253268 0.000000 -0.967396
vn -0.204409 0.000000 -0.978886
vn -0.781985 0.000000 -0.623298
vn -0.253268 0.000000 -0.967396
vn 0.000000 0.000000 -1.000000
vn 0.000000 0.000000 -1.000000
vn -0.204409 0.000000 -0.978886
vn 0.000000 0.000000 -1.000000
vn 0.000000 0.000000 -1.000000
vn 0.000000 0.000000 -1.000000
vn 0.000000 0.000000 -1.000000
vn 0.000000 0.000000 -1.000000
vn 0.000000 0.000000 -1.000000
vn 0.000000 0.000000 -1.000000
vn 0.000000 0.000000 -1.000000
vn -0.114258 -0.993451 0.000000
vn -0.146941 -0.989145 0.000000
vn -0.142020 -0.989864 0.000000
vn -0.114258 -0.993451 0.000000
vn -0.146941 -0.989145 0.000000
vn -0.150903 -0.988549 0.000000
vn -0.150903 -0.988549 0.000000
vn -0.142020 -0.989864 0.000000
vn -0.150903 -0.988549 0.000000
vn -0.085330 -0.996353 0.000000
vn -0.085330 -0.996353 0.000000
vn -0.150903 -0.988549 0.000000
vn -0.085330 -0.996353 0.000000
vn 0.000000 -1.000000 0.000000
vn 0.000000 -1.000000 0.000000
vn -0.085330 -0.996353 0.000000
vn -0.114258 -0.993451 0.000000
vn -0.142020 -0.989864 0.000000
vn -0.140291 -0.990110 0.000000
vn -0.114258 -0.993451 0.000000
vn -0.142020 -0.989864 0.000000
vn -0.150903 -0.988549 0.000000
vn -0.151195 -0.988504 0.000000
vn -0.140291 -0.990110 0.000000
vn -0.150903 -0.988549 0.000000
vn -0.085330 -0.996353 0.000000
vn -0.074828 -0.997196 0.000000
vn -0.151195 -0.988504 0.000000
vn -0.085330 -0.996353 0.000000
vn 0.000000 -1.000000 0.000000
vn 0.000000 -1.000000 0.000000
vn -0.074828 -0.997196 0.000000
vn -0.114258 -0.993451 0.000000
vn -0.140291 -0.990110 0.000000
vn -0.140291 -0.990110 0.000000
vn -0.114258 -0.993451 0.000000
vn -0.140291 -0.990110 0.000000
vn -0.151195 -0.988504 0.000000
vn -0.152542 -0.988297 0.000000
vn -0.140291 -0.990110 0.000000
vn -0.151195 -0.988504 0.000000
vn -0.074828 -0.997196 0.000000
vn -0.044332 -0.999017 0.000000
vn -0.152542 -0.988297 0.000000
vn -0.074828 -0.997196 0.000000
vn 0.000000 -1.000000 0.000000
vn 0.000000 -1.000000 0.000000
vn -0.044332 -0.999017 0.000000
vn 1.000000 -0.000000 0.000000
vn 1.000000 -0.000000 0.000000
vn 1.000000 -0.000000 0.000000
vn 1.000000 -0.000000 0.000000
vn 1.000000 -0.000000 0.000000
vn 1.000000 -0.000000 0.000000
vn 1.000000 -0.000000 0.000000
vn 1.000000 -0.000000 0.000000
vn 1.000000 0.000000 0.000000
vn 1.000000 -0.000000 0.000000
vn 1.000000 -0.000000 0.000000
vn 1.000000 0.000000 0.000000
vn -1.000000 0.000000 0.000000
vn -1.000000 0.000000 0.000000
vn -1.000000 0.000000 0.000000
vn -1.000000 0.000000 0.000000
vn -1.000000 0.000000 0.000000
vn -1.000000 0.000000 0.000000
vn -1.000000 0.000000 0.000000
vn -1.000000 0.000000 0.000000
vn -1.000000 0.000000 0.000000
vn -1.000000 0.000000 0.000000
vn -1.000000 0.000000 0.000000
vn -1.000000 0.000000 0.000000
s off
g pCube1
usemtl lambert2SG
f 1/1/1 2/2/2 7/3/3 6/4/4
f 2/2/5 3/5/6 8/6/7 7/3/8
f 3/5/9 4/7/10 9/8/11 8/6/12
f 4/7/13 5/9/14 10/10/15 9/8/16
f 6/4/17 7/3/18 12/11/19 11/12/20
f 7/3/21 8/6/22 13/13/23 12/11/24
f 8/6/25 9/8/26 14/14/27 13/13/28
f 9/8/29 10/10/30 15/15/31 14/14/32
f 11/12/33 12/11/34 17/16/35 16/17/36
f 12/11/37 13/13/38 18/18/39 17/16/40
f 13/13/41 14/14/42 19/19/43 18/18/44
f 14/14/45 15/15/46 20/20/47 19/19/48
f 16/17/49 17/16/50 22/21/51 21/22/52
f 17/16/53 18/18/54 23/23/55 22/21/56
f 18/18/57 19/19/58 24/24/59 23/23/60
f 19/19/61 20/20/62 25/25/63 24/24/64
f 21/22/65 22/21/66 27/26/67 26/27/68
f 22/21/69 23/23/70 28/28/71 27/26/72
f 23/23/73 24/24/74 29/29/75 28/28/76
f 24/24/77 25/25/78 30/30/79 29/29/80
f 26/27/81 27/26/82 32/31/83 31/32/84
f 27/26/85 28/28/86 33/33/87 32/31/88
f 28/28/89 29/29/90 34/34/91 33/33/92
f 29/29/93 30/30/94 35/35/95 34/34/96
f 31/32/97 32/31/98 37/36/99 36/37/100
f 32/31/101 33/33/102 38/38/103 37/36/104
f 33/33/105 34/34/106 39/39/107 38/38/108
f 34/34/109 35/35/110 40/40/111 39/39/112
f 36/37/113 37/36/114 2/41/115 1/42/116
f 37/36/117 38/38/118 3/43/119 2/41/120
f 38/38/121 39/39/122 4/44/123 3/43/124
f 39/39/125 40/40/126 5/45/127 4/44/128
f 35/46/129 30/47/130 25/48/131 20/49/132
f 40/50/133 35/46/134 20/49/135 15/51/136
f 5/9/137 40/50/138 15/51/139 10/10/140
f 26/52/141 31/53/142 16/54/143 21/55/144
f 31/53/145 36/56/146 11/57/147 16/54/148
f 36/56/149 1/1/150 6/4/151 11/57/152
g default
v 16.674725 2.378506 -7.117118
v 17.174725 2.378506 -7.117118
v 16.674725 2.438926 -7.117118
v 17.506044 3.378506 -8.650993
v 16.674725 2.438926 -9.247118
v 17.506044 3.378506 -10.780993
v 16.674725 2.378506 -9.247118
v 17.174725 2.378506 -9.247118
vt 0.720206 0.620315
vt 0.805682 0.620315
vt 0.805682 0.705791
vt 0.720206 0.705791
vt 0.805682 0.791268
vt 0.720206 0.791268
vt 0.805682 0.876744
vt 0.720206 0.876744
vt 0.805682 0.962221
vt 0.720206 0.962221
vt 0.891159 0.620315
vt 0.891159 0.705791
vt 0.634729 0.620315
vt 0.634729 0.705791
vn 0.097716 0.808633 0.580142
vn 0.097716 0.808633 0.580142
vn 0.097716 0.808633 0.580142
vn 0.097716 0.808633 0.580142
vn -0.748936 0.662642 0.000000
vn -0.748936 0.662642 0.000000
vn -0.748936 0.662642 0.000000
vn -0.748936 0.662642 0.000000
vn -0.097714 -0.808633 -0.580142
vn -0.097714 -0.808633 -0.580142
vn -0.097714 -0.808633 -0.580142
vn -0.097714 -0.808633 -0.580142
vn 0.000000 -1.000000 0.000000
vn 0.000000 -1.000000 0.000000
vn 0.000000 -1.000000 0.000000
vn 0.000000 -1.000000 0.000000
vn 0.949255 -0.314507 0.000000
vn 0.949255 -0.314507 0.000000
vn 0.949255 -0.314507 0.000000
vn 0.949255 -0.314507 0.000000
vn -1.000000 0.000000 0.000000
vn -1.000000 0.000000 0.000000
vn -1.000000 0.000000 0.000000
vn -1.000000 0.000000 0.000000
s off
g pCube3
usemtl lambert2SG
f 41/58/153 42/59/154 44/60/155 43/61/156
f 43/61/157 44/60/158 46/62/159 45/63/160
f 45/63/161 46/62/162 48/64/163 47/65/164
f 47/65/165 48/64/166 42/66/167 41/67/168
f 42/59/169 48/68/170 46/69/171 44/60/172
f 47/70/173 41/58/174 43/61/175 45/71/176
g default
v 17.211315 2.386909 -7.115508
v 15.753686 2.386702 -7.115508
v 11.735278 2.385916 -7.115507
v 9.073436 2.507184 -5.244918
v 6.930643 3.030668 -5.244918
v 17.211315 1.437666 -7.115508
v 15.753686 1.269815 -7.115508
v 11.735278 0.660759 -7.115507
v 9.073436 0.247874 -5.244918
v 6.930643 0.246054 -5.244918
v 17.211315 1.437666 -7.188424
v 15.753686 1.269815 -7.188424
v 11.735278 0.660759 -7.188424
v 9.073436 0.247874 -7.188424
v 6.930643 0.246054 -7.188424
v 17.211315 1.437666 -9.131929
v 15.753686 1.269815 -9.131929
v 11.735278 0.660759 -9.131929
v 9.073436 0.247874 -9.131929
v 6.930643 0.246054 -9.131929
v 17.211315 1.437666 -9.246702
v 15.753686 1.269815 -11.075434
v 11.735278 0.660759 -11.075434
v 9.073436 0.247874 -11.075434
v 6.930643 0.246054 -11.075434
v 17.211315 2.386909 -9.246702
v 15.753686 2.386702 -11.075434
v 11.735278 2.385916 -11.075434
v 9.073436 2.507184 -11.075434
v 6.930643 3.030668 -11.075434
v 17.211315 2.386909 -9.131929
v 15.753686 2.386702 -9.131929
v 11.735278 2.385916 -9.131929
v 9.073436 2.507184 -9.131929
v 6.930643 3.030668 -9.131929
v 17.211315 2.386909 -7.188423
v 15.753686 2.386702 -7.188423
v 11.735278 2.385916 -7.188423
v 9.073436 2.507184 -7.188423
v 6.930643 3.030668 -7.188423
vt 0.173601 0.019009
vt 0.209503 0.019009
vt 0.209503 0.162618
vt 0.173601 0.162618
vt 0.245406 0.019009
vt 0.245406 0.162618
vt 0.281308 0.019009
vt 0.281308 0.162618
vt 0.317210 0.019009
vt 0.317210 0.162618
vt 0.209503 0.210487
vt 0.173601 0.210487
vt 0.245406 0.210487
vt 0.281308 0.210487
vt 0.317210 0.210487
vt 0.209503 0.258357
vt 0.173601 0.258357
vt 0.245406 0.258357
vt 0.281308 0.258357
vt 0.317210 0.258357
vt 0.209503 0.306226
vt 0.173601 0.306226
vt 0.245406 0.306226
vt 0.281308 0.306226
vt 0.317210 0.306226
vt 0.209503 0.449835
vt 0.173601 0.449835
vt 0.245406 0.449835
vt 0.281308 0.449835
vt 0.317210 0.449835
vt 0.209503 0.497705
vt 0.173601 0.497705
vt 0.245406 0.497705
vt 0.281308 0.497705
vt 0.317210 0.497705
vt 0.209503 0.545575
vt 0.173601 0.545575
vt 0.245406 0.545575
vt 0.281308 0.545575
vt 0.317210 0.545575
vt 0.209503 0.593444
vt 0.173601 0.593444
vt 0.245406 0.593444
vt 0.281308 0.593444
vt 0.317210 0.593444
vt 0.412949 0.019009
vt 0.460819 0.019009
vt 0.460819 0.162618
vt 0.412949 0.162618
vt 0.365080 0.019009
vt 0.365080 0.162618
vt 0.029992 0.019009
vt 0.077862 0.019009
vt 0.077862 0.162618
vt 0.029992 0.162618
vt 0.125731 0.019009
vt 0.125731 0.162618
vn -0.000000 -0.000000 1.000000
vn -0.000000 -0.000000 1.000000
vn -0.000000 -0.000000 1.000000
vn -0.000000 -0.000000 1.000000
vn -0.000000 -0.000000 1.000000
vn 0.373783 -0.000000 0.927516
vn 0.327800 -0.000000 0.944747
vn -0.000000 -0.000000 1.000000
vn 0.373783 -0.000000 0.927516
vn 0.301774 -0.000000 0.953380
vn 0.281359 -0.000000 0.959603
vn 0.327800 -0.000000 0.944747
vn 0.301774 -0.000000 0.953380
vn -0.000000 -0.000000 1.000000
vn -0.000000 -0.000000 1.000000
vn 0.281359 -0.000000 0.959603
vn 0.000000 -1.000000 -0.000000
vn 0.000000 -1.000000 -0.000000
vn 0.000000 -1.000000 -0.000000
vn 0.000000 -1.000000 -0.000000
vn 0.000000 -1.000000 -0.000000
vn 0.042687 -0.999088 -0.000000
vn 0.022682 -0.999743 -0.000000
vn 0.000000 -1.000000 -0.000000
vn 0.042687 -0.999088 -0.000000
vn 0.185603 -0.982625 -0.000000
vn 0.146909 -0.989150 -0.000000
vn 0.022682 -0.999743 -0.000000
vn 0.185603 -0.982625 -0.000000
vn 0.238099 -0.971241 -0.000000
vn 0.238099 -0.971241 -0.000000
vn 0.146909 -0.989150 -0.000000
vn 0.000000 -1.000000 -0.000000
vn 0.000000 -1.000000 -0.000000
vn 0.000000 -1.000000 -0.000000
vn 0.000000 -1.000000 -0.000000
vn 0.000000 -1.000000 -0.000000
vn 0.022682 -0.999743 -0.000000
vn 0.018360 -0.999831 -0.000000
vn 0.000000 -1.000000 -0.000000
vn 0.022682 -0.999743 -0.000000
vn 0.146909 -0.989150 -0.000000
vn 0.133655 -0.991028 -0.000000
vn 0.018360 -0.999831 -0.000000
vn 0.146909 -0.989150 -0.000000
vn 0.238099 -0.971241 -0.000000
vn 0.238099 -0.971241 -0.000000
vn 0.133655 -0.991028 -0.000000
vn 0.000000 -1.000000 -0.000000
vn 0.000000 -1.000000 -0.000000
vn 0.000000 -1.000000 -0.000000
vn 0.000000 -1.000000 -0.000000
vn 0.000000 -1.000000 -0.000000
vn 0.018360 -0.999831 -0.000000
vn 0.018360 -0.999831 -0.000000
vn 0.000000 -1.000000 -0.000000
vn 0.018360 -0.999831 -0.000000
vn 0.133655 -0.991028 -0.000000
vn 0.133655 -0.991028 -0.000000
vn 0.018360 -0.999831 -0.000000
vn 0.133655 -0.991028 -0.000000
vn 0.238099 -0.971241 -0.000000
vn 0.238099 -0.971241 -0.000000
vn 0.133655 -0.991028 -0.000000
vn 0.781985 0.000000 -0.623298
vn 0.253268 0.000000 -0.967396
vn 0.204409 0.000000 -0.978886
vn 0.781985 0.000000 -0.623298
vn 0.253268 0.000000 -0.967396
vn 0.000000 0.000000 -1.000000
vn 0.000000 0.000000 -1.000000
vn 0.204409 0.000000 -0.978886
vn 0.000000 0.000000 -1.000000
vn 0.000000 0.000000 -1.000000
vn 0.000000 0.000000 -1.000000
vn 0.000000 0.000000 -1.000000
vn 0.000000 0.000000 -1.000000
vn 0.000000 0.000000 -1.000000
vn 0.000000 0.000000 -1.000000
vn 0.000000 0.000000 -1.000000
vn 0.114258 0.993451 0.000000
vn 0.146941 0.989145 0.000000
vn 0.142020 0.989864 0.000000
vn 0.114258 0.993451 0.000000
vn 0.146941 0.989145 0.000000
vn 0.150903 0.988549 0.000000
vn 0.150903 0.988549 0.000000
vn 0.142020 0.989864 0.000000
vn 0.150903 0.988549 0.000000
vn 0.085330 0.996353 0.000000
vn 0.085330 0.996353 0.000000
vn 0.150903 0.988549 0.000000
vn 0.085330 0.996353 0.000000
vn -0.000000 1.000000 0.000000
vn -0.000000 1.000000 0.000000
vn 0.085330 0.996353 0.000000
vn 0.114258 0.993451 0.000000
vn 0.142020 0.989864 0.000000
vn 0.140291 0.990110 0.000000
vn 0.114258 0.993451 0.000000
vn 0.142020 0.989864 0.000000
vn 0.150903 0.988549 0.000000
vn 0.151195 0.988504 0.000000
vn 0.140291 0.990110 0.000000
vn 0.150903 0.988549 0.000000
vn 0.085330 0.996353 0.000000
vn 0.074828 0.997196 0.000000
vn 0.151195 0.988504 0.000000
vn 0.085330 0.996353 0.000000
vn -0.000000 1.000000 0.000000
vn -0.000000 1.000000 0.000000
vn 0.074828 0.997196 0.000000
vn 0.114258 0.993451 0.000000
vn 0.140291 0.990110 0.000000
vn 0.140291 0.990110 0.000000
vn 0.114258 0.993451 0.000000
vn 0.140291 0.990110 0.000000
vn 0.151195 0.988504 0.000000
vn 0.152542 0.988297 0.000000
vn 0.140291 0.990110 0.000000
vn 0.151195 0.988504 0.000000
vn 0.074828 0.997196 0.000000
vn 0.044332 0.999017 0.000000
vn 0.152542 0.988297 0.000000
vn 0.074828 0.997196 0.000000
vn -0.000000 1.000000 0.000000
vn -0.000000 1.000000 0.000000
vn 0.044332 0.999017 0.000000
vn -1.000000 0.000000 -0.000000
vn -1.000000 0.000000 -0.000000
vn -1.000000 0.000000 -0.000000
vn -1.000000 0.000000 -0.000000
vn -1.000000 0.000000 -0.000000
vn -1.000000 0.000000 -0.000000
vn -1.000000 0.000000 -0.000000
vn -1.000000 0.000000 -0.000000
vn -1.000000 -0.000000 -0.000000
vn -1.000000 0.000000 -0.000000
vn -1.000000 0.000000 -0.000000
vn -1.000000 -0.000000 -0.000000
vn 1.000000 0.000000 0.000000
vn 1.000000 0.000000 0.000000
vn 1.000000 0.000000 0.000000
vn 1.000000 0.000000 0.000000
vn 1.000000 0.000000 0.000000
vn 1.000000 0.000000 0.000000
vn 1.000000 0.000000 0.000000
vn 1.000000 0.000000 0.000000
vn 1.000000 0.000000 0.000000
vn 1.000000 0.000000 0.000000
vn 1.000000 0.000000 0.000000
vn 1.000000 0.000000 0.000000
s off
g pCube5
usemtl lambert2SG
f 49/72/177 50/73/178 55/74/179 54/75/180
f 50/73/181 51/76/182 56/77/183 55/74/184
f 51/76/185 52/78/186 57/79/187 56/77/188
f 52/78/189 53/80/190 58/81/191 57/79/192
f 54/75/193 55/74/194 60/82/195 59/83/196
f 55/74/197 56/77/198 61/84/199 60/82/200
f 56/77/201 57/79/202 62/85/203 61/84/204
f 57/79/205 58/81/206 63/86/207 62/85/208
f 59/83/209 60/82/210 65/87/211 64/88/212
f 60/82/213 61/84/214 66/89/215 65/87/216
f 61/84/217 62/85/218 67/90/219 66/89/220
f 62/85/221 63/86/222 68/91/223 67/90/224
f 64/88/225 65/87/226 70/92/227 69/93/228
f 65/87/229 66/89/230 71/94/231 70/92/232
f 66/89/233 67/90/234 72/95/235 71/94/236
f 67/90/237 68/91/238 73/96/239 72/95/240
f 69/93/241 70/92/242 75/97/243 74/98/244
f 70/92/245 71/94/246 76/99/247 75/97/248
f 71/94/249 72/95/250 77/100/251 76/99/252
f 72/95/253 73/96/254 78/101/255 77/100/256
f 74/98/257 75/97/258 80/102/259 79/103/260
f 75/97/261 76/99/262 81/104/263 80/102/264
f 76/99/265 77/100/266 82/105/267 81/104/268
f 77/100/269 78/101/270 83/106/271 82/105/272
f 79/103/273 80/102/274 85/107/275 84/108/276
f 80/102/277 81/104/278 86/109/279 85/107/280
f 81/104/281 82/105/282 87/110/283 86/109/284
f 82/105/285 83/106/286 88/111/287 87/110/288
f 84/108/289 85/107/290 50/112/291 49/113/292
f 85/107/293 86/109/294 51/114/295 50/112/296
f 86/109/297 87/110/298 52/115/299 51/114/300
f 87/110/301 88/111/302 53/116/303 52/115/304
f 83/117/305 78/118/306 73/119/307 68/120/308
f 88/121/309 83/117/310 68/120/311 63/122/312
f 53/80/313 88/121/314 63/122/315 58/81/316
f 74/123/317 79/124/318 64/125/319 69/126/320
f 79/124/321 84/127/322 59/128/323 64/125/324
f 84/127/325 49/72/326 54/75/327 59/128/328
g default
v -16.679363 2.378506 -9.327707
v -17.179363 2.378506 -9.327707
v -16.679363 2.438926 -9.327707
v -17.510683 3.378506 -10.770177
v -16.679363 2.438926 -7.197707
v -17.510683 3.378506 -8.640177
v -16.679363 2.378506 -7.197707
v -17.179363 2.378506 -7.197707
vt 0.720206 0.620315
vt 0.805682 0.620315
vt 0.805682 0.705791
vt 0.720206 0.705791
vt 0.805682 0.791268
vt 0.720206 0.791268
vt 0.805682 0.876744
vt 0.720206 0.876744
vt 0.805682 0.962221
vt 0.720206 0.962221
vt 0.891159 0.620315
vt 0.891159 0.705791
vt 0.634729 0.620315
vt 0.634729 0.705791
vn 0.095634 -0.791406 -0.603763
vn 0.095634 -0.791406 -0.603763
vn 0.095634 -0.791407 -0.603763
vn 0.095634 -0.791407 -0.603763
vn 0.748936 0.662642 0.000000
vn 0.748936 0.662642 0.000000
vn 0.748936 0.662642 0.000000
vn 0.748936 0.662642 0.000000
vn 0.097714 -0.808633 0.580142
vn 0.097714 -0.808633 0.580142
vn 0.097714 -0.808633 0.580142
vn 0.097714 -0.808633 0.580142
vn 0.000000 -1.000000 0.000000
vn 0.000000 -1.000000 0.000000
vn 0.000000 -1.000000 0.000000
vn 0.000000 -1.000000 0.000000
vn -0.949255 -0.314507 -0.000000
vn -0.949255 -0.314507 -0.000000
vn -0.949255 -0.314507 -0.000000
vn -0.949255 -0.314507 -0.000000
vn 1.000000 0.000000 0.000000
vn 1.000000 0.000000 0.000000
vn 1.000000 0.000000 0.000000
vn 1.000000 0.000000 0.000000
s off
g pCube6
usemtl lambert2SG
f 89/129/329 90/130/330 92/131/331 91/132/332
f 91/132/333 92/131/334 94/133/335 93/134/336
f 93/134/337 94/133/338 96/135/339 95/136/340
f 95/136/341 96/135/342 90/137/343 89/138/344
f 90/130/345 96/139/346 94/140/347 92/131/348
f 95/141/349 89/129/350 91/132/351 93/142/352
